<mxfile host="app.diagrams.net" agent="Mozilla/5.0 (Windows NT 10.0; Win64; x64) AppleWebKit/537.36 (KHTML, like Gecko) Chrome/127.0.0.0 Safari/537.36" version="24.8.2">
  <diagram name="Page-1" id="2ezhpwWkHfBQPcCd3U9_">
    <mxGraphModel dx="794" dy="446" grid="1" gridSize="10" guides="1" tooltips="1" connect="1" arrows="1" fold="1" page="1" pageScale="1" pageWidth="850" pageHeight="1100" math="0" shadow="0">
      <root>
        <mxCell id="0" />
        <mxCell id="1" parent="0" />
        <mxCell id="cgJW-JgfZmUZchAfvvd1-1" value="" style="rounded=1;whiteSpace=wrap;html=1;arcSize=2;" vertex="1" parent="1">
          <mxGeometry x="30" y="30" width="730" height="550" as="geometry" />
        </mxCell>
        <mxCell id="cgJW-JgfZmUZchAfvvd1-4" value="" style="rounded=1;whiteSpace=wrap;html=1;arcSize=3;" vertex="1" parent="1">
          <mxGeometry x="140" y="70" width="410" height="390" as="geometry" />
        </mxCell>
        <mxCell id="cgJW-JgfZmUZchAfvvd1-5" value="Azure DevOps&lt;div&gt;=&lt;/div&gt;" style="image;aspect=fixed;html=1;points=[];align=center;fontSize=12;image=img/lib/azure2/devops/Azure_DevOps.svg;" vertex="1" parent="1">
          <mxGeometry x="120" y="40" width="50" height="50" as="geometry" />
        </mxCell>
        <mxCell id="cgJW-JgfZmUZchAfvvd1-12" style="edgeStyle=orthogonalEdgeStyle;rounded=0;orthogonalLoop=1;jettySize=auto;html=1;entryX=0.5;entryY=0;entryDx=0;entryDy=0;" edge="1" parent="1" source="cgJW-JgfZmUZchAfvvd1-6" target="cgJW-JgfZmUZchAfvvd1-14">
          <mxGeometry relative="1" as="geometry">
            <mxPoint x="247" y="250" as="targetPoint" />
          </mxGeometry>
        </mxCell>
        <mxCell id="cgJW-JgfZmUZchAfvvd1-13" value="CI Trigger" style="edgeLabel;html=1;align=center;verticalAlign=middle;resizable=0;points=[];" vertex="1" connectable="0" parent="cgJW-JgfZmUZchAfvvd1-12">
          <mxGeometry x="-0.3399" y="2" relative="1" as="geometry">
            <mxPoint as="offset" />
          </mxGeometry>
        </mxCell>
        <mxCell id="cgJW-JgfZmUZchAfvvd1-6" value="" style="image;sketch=0;aspect=fixed;html=1;points=[];align=center;fontSize=12;image=img/lib/mscae/Azure_Repos.svg;" vertex="1" parent="1">
          <mxGeometry x="207" y="149" width="45" height="50" as="geometry" />
        </mxCell>
        <mxCell id="cgJW-JgfZmUZchAfvvd1-8" value="Artifacts" style="image;sketch=0;aspect=fixed;html=1;points=[];align=center;fontSize=12;image=img/lib/mscae/Azure_Artifacts.svg;" vertex="1" parent="1">
          <mxGeometry x="205" y="380" width="50" height="50" as="geometry" />
        </mxCell>
        <mxCell id="cgJW-JgfZmUZchAfvvd1-9" value="Dev" style="verticalLabelPosition=bottom;html=1;verticalAlign=top;align=center;strokeColor=none;fillColor=#00BEF2;shape=mxgraph.azure.user;" vertex="1" parent="1">
          <mxGeometry x="50" y="149" width="47.5" height="50" as="geometry" />
        </mxCell>
        <mxCell id="cgJW-JgfZmUZchAfvvd1-10" style="edgeStyle=orthogonalEdgeStyle;rounded=0;orthogonalLoop=1;jettySize=auto;html=1;entryX=0.133;entryY=0.467;entryDx=0;entryDy=0;entryPerimeter=0;" edge="1" parent="1" source="cgJW-JgfZmUZchAfvvd1-9" target="cgJW-JgfZmUZchAfvvd1-6">
          <mxGeometry relative="1" as="geometry" />
        </mxCell>
        <mxCell id="cgJW-JgfZmUZchAfvvd1-11" value="Code Commits" style="edgeLabel;html=1;align=center;verticalAlign=middle;resizable=0;points=[];" vertex="1" connectable="0" parent="cgJW-JgfZmUZchAfvvd1-10">
          <mxGeometry x="0.2058" y="1" relative="1" as="geometry">
            <mxPoint x="-18" y="2" as="offset" />
          </mxGeometry>
        </mxCell>
        <mxCell id="cgJW-JgfZmUZchAfvvd1-14" value="" style="shape=step;perimeter=stepPerimeter;whiteSpace=wrap;html=1;fixedSize=1;fillColor=#dae8fc;strokeColor=#6c8ebf;" vertex="1" parent="1">
          <mxGeometry x="170" y="260" width="120" height="90" as="geometry" />
        </mxCell>
        <mxCell id="cgJW-JgfZmUZchAfvvd1-15" value="" style="shape=step;perimeter=stepPerimeter;whiteSpace=wrap;html=1;fixedSize=1;fillColor=#dae8fc;strokeColor=#6c8ebf;" vertex="1" parent="1">
          <mxGeometry x="290" y="260" width="120" height="90" as="geometry" />
        </mxCell>
        <mxCell id="cgJW-JgfZmUZchAfvvd1-28" style="edgeStyle=orthogonalEdgeStyle;rounded=0;orthogonalLoop=1;jettySize=auto;html=1;" edge="1" parent="1" source="cgJW-JgfZmUZchAfvvd1-16" target="cgJW-JgfZmUZchAfvvd1-22">
          <mxGeometry relative="1" as="geometry">
            <Array as="points">
              <mxPoint x="530" y="305" />
              <mxPoint x="530" y="200" />
            </Array>
          </mxGeometry>
        </mxCell>
        <mxCell id="cgJW-JgfZmUZchAfvvd1-29" value="Release to Cloud" style="edgeLabel;html=1;align=center;verticalAlign=middle;resizable=0;points=[];" vertex="1" connectable="0" parent="cgJW-JgfZmUZchAfvvd1-28">
          <mxGeometry x="-0.2566" y="3" relative="1" as="geometry">
            <mxPoint as="offset" />
          </mxGeometry>
        </mxCell>
        <mxCell id="cgJW-JgfZmUZchAfvvd1-16" value="" style="shape=step;perimeter=stepPerimeter;whiteSpace=wrap;html=1;fixedSize=1;fillColor=#dae8fc;strokeColor=#6c8ebf;" vertex="1" parent="1">
          <mxGeometry x="400" y="260" width="120" height="90" as="geometry" />
        </mxCell>
        <mxCell id="cgJW-JgfZmUZchAfvvd1-20" style="edgeStyle=orthogonalEdgeStyle;rounded=0;orthogonalLoop=1;jettySize=auto;html=1;" edge="1" parent="1" source="cgJW-JgfZmUZchAfvvd1-17" target="cgJW-JgfZmUZchAfvvd1-8">
          <mxGeometry relative="1" as="geometry" />
        </mxCell>
        <mxCell id="cgJW-JgfZmUZchAfvvd1-17" value="CI Pipeline" style="image;sketch=0;aspect=fixed;html=1;points=[];align=center;fontSize=12;image=img/lib/mscae/Azure_Pipelines.svg;" vertex="1" parent="1">
          <mxGeometry x="204.5" y="275" width="50" height="50" as="geometry" />
        </mxCell>
        <mxCell id="cgJW-JgfZmUZchAfvvd1-18" value="Automation/ Security&amp;nbsp;&lt;div&gt;Test/ Scans&lt;/div&gt;" style="image;sketch=0;aspect=fixed;html=1;points=[];align=center;fontSize=12;image=img/lib/mscae/Azure_Pipelines.svg;" vertex="1" parent="1">
          <mxGeometry x="330" y="275" width="50" height="50" as="geometry" />
        </mxCell>
        <mxCell id="cgJW-JgfZmUZchAfvvd1-19" value="CD Pipeline" style="image;sketch=0;aspect=fixed;html=1;points=[];align=center;fontSize=12;image=img/lib/mscae/Azure_Pipelines.svg;" vertex="1" parent="1">
          <mxGeometry x="440" y="275" width="50" height="50" as="geometry" />
        </mxCell>
        <mxCell id="cgJW-JgfZmUZchAfvvd1-21" value="Tests" style="image;sketch=0;aspect=fixed;html=1;points=[];align=center;fontSize=12;image=img/lib/mscae/Azure_Test_Plans.svg;" vertex="1" parent="1">
          <mxGeometry x="322.5" y="380" width="45" height="50" as="geometry" />
        </mxCell>
        <mxCell id="cgJW-JgfZmUZchAfvvd1-22" value="" style="rounded=1;whiteSpace=wrap;html=1;arcSize=6;fillColor=#d5e8d4;strokeColor=#82b366;" vertex="1" parent="1">
          <mxGeometry x="580" y="70" width="160" height="390" as="geometry" />
        </mxCell>
        <mxCell id="cgJW-JgfZmUZchAfvvd1-23" value="Cloud" style="verticalLabelPosition=bottom;html=1;verticalAlign=top;align=center;strokeColor=none;fillColor=#00BEF2;shape=mxgraph.azure.cloud;" vertex="1" parent="1">
          <mxGeometry x="560" y="48.75" width="50" height="32.5" as="geometry" />
        </mxCell>
        <mxCell id="cgJW-JgfZmUZchAfvvd1-24" value="Approvers" style="verticalLabelPosition=bottom;html=1;verticalAlign=top;align=center;strokeColor=#b85450;fillColor=#f8cecc;shape=mxgraph.azure.user;" vertex="1" parent="1">
          <mxGeometry x="441.25" y="480" width="47.5" height="50" as="geometry" />
        </mxCell>
        <mxCell id="cgJW-JgfZmUZchAfvvd1-25" style="edgeStyle=orthogonalEdgeStyle;rounded=0;orthogonalLoop=1;jettySize=auto;html=1;entryX=0.493;entryY=1.1;entryDx=0;entryDy=0;entryPerimeter=0;" edge="1" parent="1" source="cgJW-JgfZmUZchAfvvd1-24" target="cgJW-JgfZmUZchAfvvd1-19">
          <mxGeometry relative="1" as="geometry" />
        </mxCell>
        <mxCell id="cgJW-JgfZmUZchAfvvd1-30" value="Approval" style="edgeLabel;html=1;align=center;verticalAlign=middle;resizable=0;points=[];" vertex="1" connectable="0" parent="cgJW-JgfZmUZchAfvvd1-25">
          <mxGeometry x="0.1201" y="2" relative="1" as="geometry">
            <mxPoint as="offset" />
          </mxGeometry>
        </mxCell>
        <mxCell id="cgJW-JgfZmUZchAfvvd1-26" value="Server" style="verticalLabelPosition=bottom;html=1;verticalAlign=top;align=center;strokeColor=none;fillColor=#00BEF2;shape=mxgraph.azure.virtual_machine;" vertex="1" parent="1">
          <mxGeometry x="635" y="100" width="50" height="40" as="geometry" />
        </mxCell>
        <mxCell id="cgJW-JgfZmUZchAfvvd1-27" value="Cloud Service" style="verticalLabelPosition=bottom;html=1;verticalAlign=top;align=center;strokeColor=none;fillColor=#00BEF2;shape=mxgraph.azure.cloud_service;" vertex="1" parent="1">
          <mxGeometry x="635" y="190" width="50" height="40" as="geometry" />
        </mxCell>
        <mxCell id="cgJW-JgfZmUZchAfvvd1-32" style="edgeStyle=orthogonalEdgeStyle;rounded=0;orthogonalLoop=1;jettySize=auto;html=1;" edge="1" parent="1" source="cgJW-JgfZmUZchAfvvd1-31" target="cgJW-JgfZmUZchAfvvd1-15">
          <mxGeometry relative="1" as="geometry" />
        </mxCell>
        <mxCell id="cgJW-JgfZmUZchAfvvd1-33" value="Secrets" style="edgeLabel;html=1;align=center;verticalAlign=middle;resizable=0;points=[];" vertex="1" connectable="0" parent="cgJW-JgfZmUZchAfvvd1-32">
          <mxGeometry x="-0.0352" relative="1" as="geometry">
            <mxPoint as="offset" />
          </mxGeometry>
        </mxCell>
        <mxCell id="cgJW-JgfZmUZchAfvvd1-31" value="" style="image;aspect=fixed;html=1;points=[];align=center;fontSize=12;image=img/lib/azure2/security/Key_Vaults.svg;" vertex="1" parent="1">
          <mxGeometry x="323" y="144" width="55" height="55" as="geometry" />
        </mxCell>
        <mxCell id="cgJW-JgfZmUZchAfvvd1-34" value="DB" style="image;aspect=fixed;perimeter=ellipsePerimeter;html=1;align=center;shadow=0;dashed=0;spacingTop=3;image=img/lib/active_directory/database.svg;" vertex="1" parent="1">
          <mxGeometry x="635" y="281.5" width="50" height="37" as="geometry" />
        </mxCell>
        <mxCell id="cgJW-JgfZmUZchAfvvd1-35" value="API" style="aspect=fixed;sketch=0;html=1;dashed=0;whitespace=wrap;verticalLabelPosition=bottom;verticalAlign=top;fillColor=#2875E2;strokeColor=#ffffff;points=[[0.005,0.63,0],[0.1,0.2,0],[0.9,0.2,0],[0.5,0,0],[0.995,0.63,0],[0.72,0.99,0],[0.5,1,0],[0.28,0.99,0]];shape=mxgraph.kubernetes.icon2;prIcon=api" vertex="1" parent="1">
          <mxGeometry x="640" y="360" width="50" height="48" as="geometry" />
        </mxCell>
      </root>
    </mxGraphModel>
  </diagram>
</mxfile>
